{"title":"The.Dust.Of.Time.2008.DVDRip.XviD.AC3-ViSiON","uid":6106550,"size":1560044524,"categoryP":"video","categoryS":"movies","magnet":"?xt=urn:btih:fcdf7bc747706a2ab091faecfb2a4724c254d17e&amp;dn=The.Dust.Of.Time.2008.DVDRip.XviD.AC3-ViSiON&amp;tr=udp%3A%2F%2Ftracker.openbittorrent.com%3A80&amp;tr=udp%3A%2F%2Fopen.demonii.com%3A1337&amp;tr=udp%3A%2F%2Ftracker.coppersurfer.tk%3A6969&amp;tr=udp%3A%2F%2Fexodus.desync.com%3A6969","seeders":4,"leechers":2,"uploader":"CODYBOSS1969","files":4,"time":1295186724,"description":"General\nComplete name                    : The.Dust.Of.Time.2008.DVDRip.XviD.AC3-ViSiON.avi\nFormat                           : AVI\nFormat/Info                      : Audio Video Interleave\nFile size                        : 1.45 GiB\nDuration                         : 2h 2mn\nOverall bit rate                 : 1 697 Kbps\nWriting application              : VirtualDubMod 1.5.10.2 (build 2542/release)\nWriting library                  : VirtualDubMod build 2542/release\n\nVideo\nID                               : 0\nFormat                           : MPEG-4 Visual\nFormat profile                   : Advanced Simple@L5\nFormat settings, BVOP            : Yes\nFormat settings, QPel            : No\nFormat settings, GMC             : No warppoints\nFormat settings, Matrix          : Custom\nMuxing mode                      : Packed bitstream\nCodec ID                         : XVID\nCodec ID/Hint                    : XviD\nDuration                         : 2h 2mn\nBit rate                         : 1 239 Kbps\nWidth                            : 720 pixels\nHeight                           : 384 pixels\nDisplay aspect ratio             : 1.875\nFrame rate                       : 25.000 fps\nColor space                      : YUV\nChroma subsampling               : 4:2:0\nBit depth                        : 8 bits\nScan type                        : Progressive\nCompression mode                 : Lossy\nBits/(Pixel*Frame)               : 0.179\nStream size                      : 1.06 GiB (73%)\nWriting library                  : XviD 1.2.1 (UTC 2008-12-04)\n\nAudio\nID                               : 1\nFormat                           : AC-3\nFormat/Info                      : Audio Coding 3\nMode extension                   : CM (complete main)\nCodec ID                         : 2000\nDuration                         : 2h 2mn\nBit rate mode                    : Constant\nBit rate                         : 448 Kbps\nChannel(s)                       : 6 channels\nChannel positions                : Front: L C R, Side: L R, LFE\nSampling rate                    : 48.0 KHz\nBit depth                        : 16 bits\nCompression mode                 : Lossy\nStream size                      : 393 MiB (26%)\nAlignment                        : Split accross interleaves\nInterleave, duration             : 40 ms (1.00 video frame)\nInterleave, preload duration     : 500 ms\n\n\n\nIMDB: &lt;a href=&quot; http://www.imdb.com/title/tt0765442/&quot; rel=&quot;nofollow&quot; target=&quot;_NEW&quot;&gt; http://www.imdb.com/title/tt0765442/&lt;/a&gt;\n\n\n\nSubtitles included: Romanian, English [for non-English parts]\n","torrent":{"xt":"urn:btih:fcdf7bc747706a2ab091faecfb2a4724c254d17e","amp;dn":"The.Dust.Of.Time.2008.DVDRip.XviD.AC3-ViSiON","amp;tr":["udp%3A%2F%2Ftracker.openbittorrent.com%3A80","udp%3A%2F%2Fopen.demonii.com%3A1337","udp%3A%2F%2Ftracker.coppersurfer.tk%3A6969","udp%3A%2F%2Fexodus.desync.com%3A6969"],"infoHash":"fcdf7bc747706a2ab091faecfb2a4724c254d17e","infoHashBuffer":{"type":"Buffer","data":[252,223,123,199,71,112,106,42,176,145,250,236,251,42,71,36,194,84,209,126]},"announce":[],"urlList":[]}}